<?xml version="1.0" encoding="UTF-8" standalone="no"?>
<svg
   width="14.003662"
   height="14.022369"
   id="svg2"
   version="1.0"
   style="display:inline;enable-background:new"
   xmlns="http://www.w3.org/2000/svg"
   xmlns:svg="http://www.w3.org/2000/svg"
   xmlns:rdf="http://www.w3.org/1999/02/22-rdf-syntax-ns#"
   xmlns:cc="http://creativecommons.org/ns#"
   xmlns:dc="http://purl.org/dc/elements/1.1/">
  <metadata
     id="metadata34337">
    <rdf:RDF>
      <cc:Work
         rdf:about="">
        <dc:format>image/svg+xml</dc:format>
        <dc:type
           rdf:resource="http://purl.org/dc/dcmitype/StillImage" />
        <dc:title />
      </cc:Work>
    </rdf:RDF>
  </metadata>
  <defs
     id="defs4" />
  <g
     id="layer8"
     style="display:inline"
     transform="translate(-152.99817,-431)">
    <path
       style="color:#000000;font-style:normal;font-variant:normal;font-weight:normal;font-stretch:normal;font-size:medium;line-height:normal;font-family:sans-serif;font-variant-ligatures:normal;font-variant-position:normal;font-variant-caps:normal;font-variant-numeric:normal;font-variant-alternates:normal;font-feature-settings:normal;text-indent:0;text-align:start;text-decoration:none;text-decoration-line:none;text-decoration-style:solid;text-decoration-color:#000000;letter-spacing:normal;word-spacing:normal;text-transform:none;writing-mode:lr-tb;direction:ltr;text-orientation:mixed;dominant-baseline:auto;baseline-shift:baseline;text-anchor:start;white-space:normal;shape-padding:0;clip-rule:nonzero;display:inline;overflow:visible;visibility:visible;opacity:1;isolation:auto;mix-blend-mode:normal;color-interpolation:sRGB;color-interpolation-filters:linearRGB;solid-color:#000000;solid-opacity:1;vector-effect:none;fill:#ffffff;fill-opacity:1;fill-rule:nonzero;stroke:none;stroke-width:3;stroke-linecap:round;stroke-linejoin:round;stroke-miterlimit:4;stroke-dasharray:none;stroke-dashoffset:0;stroke-opacity:1;color-rendering:auto;image-rendering:auto;shape-rendering:auto;text-rendering:auto;enable-background:accumulate"
       d="m 160.5,431 a 1.5,1.5 0 0 0 -1.5,1.5 1.5,1.5 0 0 0 0.0879,0.5 h -4.56836 a 1.50015,1.50015 0 1 0 0,3 H 158 v 1.94922 c -1.31983,1.3363 -2.47353,2.76999 -2.9707,5.25586 a 1.50015,1.50015 0 1 0 2.9414,0.58984 c 0.37009,-1.85045 0.99513,-2.60285 2.0293,-3.6289 1.03417,1.02605 1.65921,1.77845 2.0293,3.6289 a 1.50015,1.50015 0 1 0 2.9414,-0.58984 c -0.49717,-2.48587 -1.65087,-3.91956 -2.9707,-5.25586 V 436 h 3.48047 a 1.50015,1.50015 0 1 0 0,-3 h -2.53711 c -0.0387,0.18925 -0.094,0.37697 -0.17774,0.55664 C 162.35553,434.4361 161.47038,435 160.5,435 a 0.50005,0.50005 0 1 1 0,-1 1.5,1.5 0 0 0 0.41406,-0.0586 c 0.009,-0.002 0.0169,-0.005 0.0254,-0.008 a 1.5,1.5 0 0 0 0.35157,-0.16211 c 0.006,-0.004 0.0133,-0.006 0.0195,-0.01 a 1.5,1.5 0 0 0 0.004,-0.002 1.5,1.5 0 0 0 0.29102,-0.25 c 0.009,-0.0103 0.0202,-0.0187 0.0293,-0.0293 a 1.5,1.5 0 0 0 0.21484,-0.33008 c 0.003,-0.006 0.007,-0.01 0.01,-0.0156 0.002,-0.005 0.004,-0.0104 0.006,-0.0156 A 1.5,1.5 0 0 0 162,432.5 1.5,1.5 0 0 0 160.5,431 Z"
       id="path13634" />
  </g>
</svg>
