<?xml version="1.0" encoding="UTF-8" standalone="no"?>
<svg
   width="14.008591"
   height="14.023621"
   id="svg2"
   version="1.0"
   style="display:inline;enable-background:new"
   xmlns="http://www.w3.org/2000/svg"
   xmlns:svg="http://www.w3.org/2000/svg"
   xmlns:rdf="http://www.w3.org/1999/02/22-rdf-syntax-ns#"
   xmlns:cc="http://creativecommons.org/ns#"
   xmlns:dc="http://purl.org/dc/elements/1.1/">
  <metadata
     id="metadata34337">
    <rdf:RDF>
      <cc:Work
         rdf:about="">
        <dc:format>image/svg+xml</dc:format>
        <dc:type
           rdf:resource="http://purl.org/dc/dcmitype/StillImage" />
        <dc:title />
      </cc:Work>
    </rdf:RDF>
  </metadata>
  <defs
     id="defs4" />
  <g
     id="layer8"
     style="display:inline"
     transform="translate(-153,-410)">
    <g
       style="display:inline;fill:#ffffff;enable-background:new"
       id="g20896"
       transform="translate(-189,63.000005)">
      <path
         style="color:#000000;font-style:normal;font-variant:normal;font-weight:normal;font-stretch:normal;font-size:medium;line-height:normal;font-family:sans-serif;font-variant-ligatures:normal;font-variant-position:normal;font-variant-caps:normal;font-variant-numeric:normal;font-variant-alternates:normal;font-feature-settings:normal;text-indent:0;text-align:start;text-decoration:none;text-decoration-line:none;text-decoration-style:solid;text-decoration-color:#000000;letter-spacing:normal;word-spacing:normal;text-transform:none;writing-mode:lr-tb;direction:ltr;text-orientation:mixed;dominant-baseline:auto;baseline-shift:baseline;text-anchor:start;white-space:normal;shape-padding:0;clip-rule:nonzero;display:inline;overflow:visible;visibility:visible;opacity:1;isolation:auto;mix-blend-mode:normal;color-interpolation:sRGB;color-interpolation-filters:linearRGB;solid-color:#000000;solid-opacity:1;vector-effect:none;fill:#ffffff;fill-opacity:1;fill-rule:evenodd;stroke:none;stroke-width:1;stroke-linecap:round;stroke-linejoin:round;stroke-miterlimit:4;stroke-dasharray:none;stroke-dashoffset:0;stroke-opacity:1;marker:none;color-rendering:auto;image-rendering:auto;shape-rendering:auto;text-rendering:auto;enable-background:accumulate"
         d="m 161.50391,410 c -0.82054,0 -1.4961,0.67556 -1.4961,1.49609 0,0.82054 0.67556,1.4961 1.4961,1.4961 0.82053,0 1.49609,-0.67556 1.49609,-1.4961 C 163,410.67556 162.32444,410 161.50391,410 Z M 153.5,411 a 0.50005,0.50005 0 0 0 -0.5,0.5 v 3 a 0.50005,0.50005 0 0 0 0.5,0.5 h 3 a 0.50005,0.50005 0 0 0 0.5,-0.5 V 414 h 0.51562 2.49805 L 160,417.28711 c -1.65939,1.40974 -3.24134,2.62162 -3.98828,6.10742 -0.17787,0.67446 0.86019,0.89868 0.97656,0.21094 0.67528,-3.15139 1.92341,-4.0882 3.51758,-5.42774 1.58398,1.34059 2.83152,2.27747 3.51953,5.42969 0.13318,0.66658 1.13543,0.44609 0.97656,-0.21484 -0.76273,-3.49457 -2.35104,-4.70351 -4.00195,-6.11719 L 161.01367,414 h 2.2168 3.28515 c 0.6573,-0.009 0.6573,-0.9907 0,-1 h -3.04296 c -0.45945,0.59659 -1.17125,0.99219 -1.96875,0.99219 -0.79751,0 -1.50931,-0.3956 -1.96875,-0.99219 H 157.51562 157 v -1.5 a 0.50005,0.50005 0 0 0 -0.5,-0.5 z m 0.5,1 h 2 v 2 h -2 z"
         transform="translate(189,-63.000005)"
         id="path20782" />
      <g
         transform="translate(188,-63)"
         id="g20817"
         style="fill:#ffffff" />
    </g>
  </g>
</svg>
