<?xml version="1.0" encoding="UTF-8" standalone="no"?>
<svg
   width="14"
   height="13"
   id="svg2"
   version="1.0"
   style="display:inline;enable-background:new"
   xmlns="http://www.w3.org/2000/svg"
   xmlns:svg="http://www.w3.org/2000/svg"
   xmlns:rdf="http://www.w3.org/1999/02/22-rdf-syntax-ns#"
   xmlns:cc="http://creativecommons.org/ns#"
   xmlns:dc="http://purl.org/dc/elements/1.1/">
  <metadata
     id="metadata34337">
    <rdf:RDF>
      <cc:Work
         rdf:about="">
        <dc:format>image/svg+xml</dc:format>
        <dc:type
           rdf:resource="http://purl.org/dc/dcmitype/StillImage" />
        <dc:title />
      </cc:Work>
    </rdf:RDF>
  </metadata>
  <defs
     id="defs4" />
  <g
     id="layer8"
     style="display:inline"
     transform="translate(-342,-432)">
    <g
       style="display:inline;fill:#ffffff;enable-background:new"
       id="g23658-7-6"
       transform="translate(-1113,-79.999998)">
      <path
         id="path23654-6-8"
         transform="translate(0,-21)"
         style="color:#000000;font-style:normal;font-variant:normal;font-weight:normal;font-stretch:normal;font-size:medium;line-height:normal;font-family:sans-serif;font-variant-ligatures:normal;font-variant-position:normal;font-variant-caps:normal;font-variant-numeric:normal;font-variant-alternates:normal;font-feature-settings:normal;text-indent:0;text-align:start;text-decoration:none;text-decoration-line:none;text-decoration-style:solid;text-decoration-color:#000000;letter-spacing:normal;word-spacing:normal;text-transform:none;writing-mode:lr-tb;direction:ltr;text-orientation:mixed;dominant-baseline:auto;baseline-shift:baseline;text-anchor:start;white-space:normal;shape-padding:0;clip-rule:nonzero;display:inline;overflow:visible;visibility:visible;opacity:1;isolation:auto;mix-blend-mode:normal;color-interpolation:sRGB;color-interpolation-filters:linearRGB;solid-color:#000000;solid-opacity:1;vector-effect:none;fill:#ffffff;fill-opacity:1;fill-rule:nonzero;stroke:none;stroke-width:1;stroke-linecap:butt;stroke-linejoin:round;stroke-miterlimit:4;stroke-dasharray:none;stroke-dashoffset:0;stroke-opacity:1;marker:none;paint-order:fill markers stroke;color-rendering:auto;image-rendering:auto;shape-rendering:auto;text-rendering:auto;enable-background:accumulate"
         d="m 1456,538 v 7.5 c 0,0.27613 0.2239,0.49997 0.5,0.5 h 11 c 0.2761,-3e-5 0.5,-0.22387 0.5,-0.5 V 538 Z m 5,1 h 2 a 1.0001,1.0001 0 1 1 0,2 h -2 a 1.0001,1.0001 0 1 1 0,-2 z m -5.5,-6 c -0.2761,3e-5 -0.5,0.22387 -0.5,0.5 v 3 c 0,0.27613 0.2239,0.49997 0.5,0.5 h 13 c 0.2761,-3e-5 0.5,-0.22387 0.5,-0.5 v -3 c 0,-0.27613 -0.2239,-0.49997 -0.5,-0.5 z" />
    </g>
  </g>
</svg>
