<?xml version="1.0" encoding="UTF-8" standalone="no"?>
<svg
   width="12.011414"
   height="12.007385"
   id="svg2"
   version="1.0"
   style="display:inline;enable-background:new"
   xmlns="http://www.w3.org/2000/svg"
   xmlns:svg="http://www.w3.org/2000/svg"
   xmlns:rdf="http://www.w3.org/1999/02/22-rdf-syntax-ns#"
   xmlns:cc="http://creativecommons.org/ns#"
   xmlns:dc="http://purl.org/dc/elements/1.1/">
  <metadata
     id="metadata34337">
    <rdf:RDF>
      <cc:Work
         rdf:about="">
        <dc:format>image/svg+xml</dc:format>
        <dc:type
           rdf:resource="http://purl.org/dc/dcmitype/StillImage" />
        <dc:title />
      </cc:Work>
    </rdf:RDF>
  </metadata>
  <defs
     id="defs4" />
  <g
     id="layer8"
     style="display:inline"
     transform="translate(-279.99313,-453.99997)">
    <g
       transform="matrix(-1,0,0,1,593.8323,-41.999985)"
       style="display:inline;opacity:1;fill:#ffffff;enable-background:new"
       id="g24182">
      <path
         style="color:#000000;font-style:normal;font-variant:normal;font-weight:normal;font-stretch:normal;font-size:medium;line-height:normal;font-family:sans-serif;font-variant-ligatures:normal;font-variant-position:normal;font-variant-caps:normal;font-variant-numeric:normal;font-variant-alternates:normal;font-feature-settings:normal;text-indent:0;text-align:start;text-decoration:none;text-decoration-line:none;text-decoration-style:solid;text-decoration-color:#000000;letter-spacing:normal;word-spacing:normal;text-transform:none;writing-mode:lr-tb;direction:ltr;text-orientation:mixed;dominant-baseline:auto;baseline-shift:baseline;text-anchor:start;white-space:normal;shape-padding:0;clip-rule:nonzero;display:inline;overflow:visible;visibility:visible;opacity:1;isolation:auto;mix-blend-mode:normal;color-interpolation:sRGB;color-interpolation-filters:linearRGB;solid-color:#000000;solid-opacity:1;vector-effect:none;fill:#ffffff;fill-opacity:1;fill-rule:nonzero;stroke:none;stroke-width:1;stroke-linecap:round;stroke-linejoin:round;stroke-miterlimit:4;stroke-dasharray:none;stroke-dashoffset:7.4;stroke-opacity:1;color-rendering:auto;image-rendering:auto;shape-rendering:auto;text-rendering:auto;enable-background:new"
         d="m 309.83203,496 c -0.79167,0 -1.54903,0.39305 -1.86328,1.11133 -0.31425,0.71827 -0.0786,1.6538 0.75977,2.49219 l 2.5,2.5 c 0.66161,0.66161 0.67598,1.10108 0.55273,1.38281 C 311.658,503.76805 311.29036,504 310.83203,504 l -7.28515,-0.008 2.13867,-2.13867 a 0.50005,0.50005 0 1 0 -0.70703,-0.70704 l -2.9336,2.93555 -0.01,0.008 a 0.50005,0.50005 0 0 0 -0.20704,0.41602 0.50005,0.50005 0 0 0 0,0.008 0.50005,0.50005 0 0 0 0.004,0.0469 0.50005,0.50005 0 0 0 0.008,0.0488 0.50005,0.50005 0 0 0 0.19336,0.29882 l 2.94532,2.94532 a 0.50005,0.50005 0 1 0 0.70703,-0.70704 l -2.1543,-2.15429 7.30078,0.008 c 0.79167,0 1.55099,-0.39305 1.86524,-1.11133 0.31424,-0.71827 0.0767,-1.6538 -0.76172,-2.49219 l -2.5,-2.5 c -0.66161,-0.66161 -0.67404,-1.10108 -0.55078,-1.38281 C 309.00802,497.23195 309.3737,497 309.83203,497 h 3.5 a 0.50005,0.50005 0 1 0 0,-1 z"
         id="path24180" />
    </g>
  </g>
</svg>
