<?xml version="1.0" encoding="UTF-8" standalone="no"?>
<svg
   width="14"
   height="14"
   id="svg2"
   version="1.0"
   style="display:inline;enable-background:new"
   xmlns="http://www.w3.org/2000/svg"
   xmlns:svg="http://www.w3.org/2000/svg"
   xmlns:rdf="http://www.w3.org/1999/02/22-rdf-syntax-ns#"
   xmlns:cc="http://creativecommons.org/ns#"
   xmlns:dc="http://purl.org/dc/elements/1.1/">
  <metadata
     id="metadata34337">
    <rdf:RDF>
      <cc:Work
         rdf:about="">
        <dc:format>image/svg+xml</dc:format>
        <dc:type
           rdf:resource="http://purl.org/dc/dcmitype/StillImage" />
        <dc:title />
      </cc:Work>
    </rdf:RDF>
  </metadata>
  <defs
     id="defs4" />
  <g
     id="layer8"
     style="display:inline"
     transform="translate(-195,-494)">
    <g
       transform="matrix(0.866668,0,0,0.866668,-9.46699,121.39943)"
       id="g5914"
       style="display:inline;opacity:1;fill:#ffffff;stroke-width:1.15384;enable-background:new">
      <g
         id="g5912"
         style="fill:#ffffff;stroke-width:1.15384">
        <path
           style="opacity:1;vector-effect:none;fill:#ffffff;fill-opacity:1;stroke:none;stroke-width:1;stroke-linecap:round;stroke-linejoin:round;stroke-miterlimit:4;stroke-dasharray:none;stroke-dashoffset:0;stroke-opacity:1;marker:none"
           d="m 202,494 c -3.86008,0 -7,3.13992 -7,7 0,3.86008 3.13992,7 7,7 3.86008,0 7,-3.13992 7,-7 0,-3.86008 -3.13992,-7 -7,-7 z m 0,1 c 3.3058,0 5.97583,2.65852 5.99805,5.95898 C 206.88654,501.90262 204.99536,503 202,503 v 4 c -3.31963,0 -6,-2.68037 -6,-6 0,-0.0145 0.002,-0.0285 0.002,-0.043 1.1112,0.94401 3.00099,2.043 5.998,2.043 z"
           transform="matrix(1.1538444,0,0,1.1538444,10.923433,-140.07605)"
           id="path5908" />
      </g>
    </g>
  </g>
</svg>
