<?xml version="1.0" encoding="UTF-8" standalone="no"?>
<svg
   width="16"
   height="16"
   id="svg2"
   version="1.0"
   style="display:inline;enable-background:new"
   xmlns="http://www.w3.org/2000/svg"
   xmlns:svg="http://www.w3.org/2000/svg"
   xmlns:rdf="http://www.w3.org/1999/02/22-rdf-syntax-ns#"
   xmlns:cc="http://creativecommons.org/ns#"
   xmlns:dc="http://purl.org/dc/elements/1.1/">
  <metadata
     id="metadata34337">
    <rdf:RDF>
      <cc:Work
         rdf:about="">
        <dc:format>image/svg+xml</dc:format>
        <dc:type
           rdf:resource="http://purl.org/dc/dcmitype/StillImage" />
        <dc:title />
      </cc:Work>
    </rdf:RDF>
  </metadata>
  <defs
     id="defs4" />
  <g
     id="layer8"
     style="display:inline"
     transform="translate(-4.4953499,-93.851402)">
    <g
       style="display:inline;opacity:1;fill:#ffffff;enable-background:new"
       id="g7388-6-3"
       transform="translate(457.49535,-616.1486)">
      <rect
         transform="scale(-1,1)"
         style="display:inline;overflow:visible;visibility:visible;opacity:0;fill:#ffffff;fill-opacity:1;fill-rule:evenodd;stroke:none;stroke-width:2.8;marker:none;enable-background:accumulate"
         id="rect7384-9-6"
         width="16"
         height="16"
         x="437"
         y="710" />
      <path
         style="color:#000000;font-style:normal;font-variant:normal;font-weight:normal;font-stretch:normal;font-size:medium;line-height:normal;font-family:sans-serif;font-variant-ligatures:normal;font-variant-position:normal;font-variant-caps:normal;font-variant-numeric:normal;font-variant-alternates:normal;font-feature-settings:normal;text-indent:0;text-align:start;text-decoration:none;text-decoration-line:none;text-decoration-style:solid;text-decoration-color:#000000;letter-spacing:normal;word-spacing:normal;text-transform:none;writing-mode:lr-tb;direction:ltr;text-orientation:mixed;dominant-baseline:auto;baseline-shift:baseline;text-anchor:start;white-space:normal;shape-padding:0;clip-rule:nonzero;display:inline;overflow:visible;visibility:visible;opacity:1;isolation:auto;mix-blend-mode:normal;color-interpolation:sRGB;color-interpolation-filters:linearRGB;solid-color:#000000;solid-opacity:1;vector-effect:none;fill:#ffffff;fill-opacity:1;fill-rule:nonzero;stroke:none;stroke-width:2;stroke-linecap:round;stroke-linejoin:miter;stroke-miterlimit:4;stroke-dasharray:none;stroke-dashoffset:0;stroke-opacity:1;color-rendering:auto;image-rendering:auto;shape-rendering:auto;text-rendering:auto;enable-background:new"
         d="m -447.96289,710.98828 a 1.0001,1.0001 0 0 0 -0.83789,0.41211 c -3.30626,4.40835 -3.18183,10.96743 -3.18555,12.58399 a 1.0001,1.0001 0 1 0 2,0.006 c 0.004,-1.64212 0.0934,-7.79897 2.78711,-11.39062 a 1.0001,1.0001 0 0 0 -0.76367,-1.61133 z m 4.97461,3.00195 a 1.0001,1.0001 0 0 0 -0.69727,0.28125 c -2.25424,2.12239 -3.3739,3.98924 -3.89062,5.64258 C -448.0929,721.56741 -448,722.96385 -448,724 a 1.0001,1.0001 0 1 0 2,0 c 0,-1.13631 -0.0696,-2.20308 0.33203,-3.48828 0.40167,-1.28521 1.28135,-2.83224 3.35352,-4.7832 a 1.0001,1.0001 0 0 0 -0.67383,-1.73829 z m 3.94531,4.00782 a 1.0001,1.0001 0 0 0 -0.16797,0.0234 C -441.66808,718.54973 -444,720.82862 -444,724 a 1.0001,1.0001 0 1 0 2,0 c 0,-2.17354 1.66808,-3.68979 3.21094,-4.02148 a 1.0001,1.0001 0 0 0 -0.25391,-1.98047 z"
         id="path7133-7-7" />
    </g>
  </g>
</svg>
