<?xml version="1.0" encoding="UTF-8" standalone="no"?>
<svg
   width="14.003204"
   height="14.005157"
   id="svg2"
   version="1.0"
   style="display:inline;enable-background:new"
   xmlns="http://www.w3.org/2000/svg"
   xmlns:svg="http://www.w3.org/2000/svg"
   xmlns:rdf="http://www.w3.org/1999/02/22-rdf-syntax-ns#"
   xmlns:cc="http://creativecommons.org/ns#"
   xmlns:dc="http://purl.org/dc/elements/1.1/">
  <metadata
     id="metadata34337">
    <rdf:RDF>
      <cc:Work
         rdf:about="">
        <dc:format>image/svg+xml</dc:format>
        <dc:type
           rdf:resource="http://purl.org/dc/dcmitype/StillImage" />
        <dc:title />
      </cc:Work>
    </rdf:RDF>
  </metadata>
  <defs
     id="defs4" />
  <g
     id="layer8"
     style="display:inline"
     transform="translate(-5.980535,-263.01562)">
    <g
       transform="translate(-1.8536743e-6)"
       id="g13852"
       style="display:inline;fill:#ffffff;stroke-width:1;stroke-miterlimit:4;stroke-dasharray:none;enable-background:new">
      <g
         id="g11167"
         transform="matrix(0,-1,-1,0,688.99474,-44.97944)"
         style="display:inline;fill:#ffffff;stroke-width:1;stroke-miterlimit:4;stroke-dasharray:none;enable-background:new" />
      <path
         style="color:#000000;font-style:normal;font-variant:normal;font-weight:normal;font-stretch:normal;font-size:medium;line-height:normal;font-family:sans-serif;font-variant-ligatures:normal;font-variant-position:normal;font-variant-caps:normal;font-variant-numeric:normal;font-variant-alternates:normal;font-feature-settings:normal;text-indent:0;text-align:start;text-decoration:none;text-decoration-line:none;text-decoration-style:solid;text-decoration-color:#000000;letter-spacing:normal;word-spacing:normal;text-transform:none;writing-mode:lr-tb;direction:ltr;text-orientation:mixed;dominant-baseline:auto;baseline-shift:baseline;text-anchor:start;white-space:normal;shape-padding:0;clip-rule:nonzero;display:inline;overflow:visible;visibility:visible;opacity:1;isolation:auto;mix-blend-mode:normal;color-interpolation:sRGB;color-interpolation-filters:linearRGB;solid-color:#000000;solid-opacity:1;vector-effect:none;fill:#ffffff;fill-opacity:1;fill-rule:nonzero;stroke:none;stroke-width:1.1;stroke-linecap:round;stroke-linejoin:round;stroke-miterlimit:4;stroke-dasharray:none;stroke-dashoffset:0;stroke-opacity:1;marker:none;paint-order:fill markers stroke;color-rendering:auto;image-rendering:auto;shape-rendering:auto;text-rendering:auto;enable-background:new"
         d="m 14.505859,263.01562 a 0.55005501,0.55005501 0 0 0 -0.05664,0.004 c -1.480032,0.16258 -2.81124,0.9768 -3.632813,2.21875 -0.754587,1.14068 -0.9438173,2.54615 -0.65039,3.875 l -3.5234379,3.52149 c -0.4164576,0.37981 -0.6354253,0.95498 -0.6601562,1.61328 -0.024627,0.65553 0.1896767,1.40646 0.7832031,2 0.5945619,0.59455 1.3481437,0.80114 1.9980469,0.76953 0.6519363,-0.0317 1.2112985,-0.25543 1.5917971,-0.63672 l 3.533203,-3.54297 c 1.328363,0.29148 2.734045,0.0991 3.873047,-0.6543 1.240498,-0.82051 2.05459,-2.151 2.21875,-3.6289 a 0.55005501,0.55005501 0 0 0 -0.160157,-0.45117 l -0.943359,-0.92969 a 0.55005501,0.55005501 0 0 0 -0.775391,0.002 l -1.80664,1.79883 h -0.589844 l -1.679687,-1.67969 v -0.58984 l 1.804687,-1.80078 a 0.55005501,0.55005501 0 0 0 0.0039,-0.77539 l -0.93164,-0.94727 a 0.55005501,0.55005501 0 0 0 -0.396485,-0.16602 z m -0.15625,1.17383 0.316407,0.32227 -1.580078,1.57617 a 0.55005501,0.55005501 0 0 0 -0.16211,0.39063 l 0.002,1.04687 a 0.55005501,0.55005501 0 0 0 0.16211,0.38672 l 2.001953,2.00195 a 0.55005501,0.55005501 0 0 0 0.388672,0.16211 l 1.046875,-0.002 a 0.55005501,0.55005501 0 0 0 0.386718,-0.16016 l 1.580079,-1.57422 0.318359,0.31446 c -0.183326,1.05859 -0.751902,2.01444 -1.654297,2.61132 -0.970627,0.64202 -2.219467,0.82961 -3.330078,0.49219 a 0.55005501,0.55005501 0 0 0 -0.548828,0.13672 l -3.699219,3.70899 c -0.1021327,0.10234 -0.4754005,0.29532 -0.8691406,0.31445 -0.395773,0.0192 -0.8021096,-0.0834 -1.1660156,-0.44727 -0.3650748,-0.36508 -0.4778317,-0.78393 -0.4628907,-1.18164 0.014838,-0.39496 0.2099663,-0.75541 0.3046875,-0.84179 a 0.55005501,0.55005501 0 0 0 0.017578,-0.0176 l 3.7070314,-3.70508 a 0.55005501,0.55005501 0 0 0 0.136719,-0.54883 c -0.339386,-1.11269 -0.154519,-2.36033 0.488281,-3.33203 0.59791,-0.90384 1.555081,-1.47203 2.615234,-1.6543 z"
         id="path11179" />
    </g>
  </g>
</svg>
