<?xml version="1.0" encoding="UTF-8" standalone="no"?>
<svg
   version="1.1"
   id="svg1"
   width="16"
   height="16"
   viewBox="0 0 16 16"
   xmlns="http://www.w3.org/2000/svg"
   xmlns:svg="http://www.w3.org/2000/svg"
   xmlns:rdf="http://www.w3.org/1999/02/22-rdf-syntax-ns#"
   xmlns:cc="http://creativecommons.org/ns#"
   xmlns:dc="http://purl.org/dc/elements/1.1/">
  <metadata
     id="metadata1264">
    <rdf:RDF>
      <cc:Work
         rdf:about="">
        <dc:format>image/svg+xml</dc:format>
        <dc:type
           rdf:resource="http://purl.org/dc/dcmitype/StillImage" />
      </cc:Work>
    </rdf:RDF>
  </metadata>
  <defs
     id="defs1262" />
  <style
     id="s0">
.success { fill:#009909; }
.warning { fill:#FF1990; }
.error { fill:#00AAFF; }
</style>
  <style
     id="s2">
@import '../../highlights.css';
</style>
  <g
     transform="translate(-195,-961.3622)"
     id="object-unlocked">
    <path
       id="rect31373"
       d="m 195,449 h 16 v 16 h -16 z"
       style="opacity:0;fill:none"
       transform="translate(0,512.3622)" />
    <path
       style="opacity:1"
       d="m 198,969.3622 v 7 h 10 v -7 a 1,1 45 0 0 -1,-1 h -8 a 1,1 135 0 0 -1,1 z"
       id="rect31375" />
    <path
       id="rect31389"
       d="m 204,966.3622 v 2 h 2 v -2 c 0,-1.108 0.49516,-2 1.5,-2 1.00484,0 1.5,0.892 1.5,2 v 2 h 2 v -2 c 0,-2.3808 -1.34322,-4 -3.5,-4 -2.15678,0 -3.5,1.68965 -3.5,4 z"
       style="opacity:1" />
  </g>
</svg>
