<?xml version="1.0" encoding="UTF-8" standalone="no"?>
<svg
   viewBox="0 0 16 16"
   height="16"
   width="16"
   id="svg1"
   version="1.1"
   xmlns="http://www.w3.org/2000/svg"
   xmlns:svg="http://www.w3.org/2000/svg"
   xmlns:rdf="http://www.w3.org/1999/02/22-rdf-syntax-ns#"
   xmlns:cc="http://creativecommons.org/ns#"
   xmlns:dc="http://purl.org/dc/elements/1.1/">
  <metadata
     id="metadata1250">
    <rdf:RDF>
      <cc:Work
         rdf:about="">
        <dc:format>image/svg+xml</dc:format>
        <dc:type
           rdf:resource="http://purl.org/dc/dcmitype/StillImage" />
      </cc:Work>
    </rdf:RDF>
  </metadata>
  <defs
     id="defs1248" />
  <style
     id="s0">
.success { fill:#009909; }
.warning { fill:#FF1990; }
.error { fill:#00AAFF; }
</style>
  <style
     id="s2">
@import '../../highlights.css';
</style>
  <g
     id="object-locked"
     transform="translate(-195,-981.36218)">
    <path
       style="opacity:0;fill:none"
       d="m 195,981.36218 h 16 v 16 h -16 z"
       id="rect31383" />
    <path
       style="opacity:1"
       d="m 198,989.36218 v 7.00002 h 10 v -7.00002 a 0.99998,0.99998 45 0 0 -0.99998,-0.99998 h -8.00004 A 0.99998,0.99998 135 0 0 198,989.36218 Z"
       id="path31387" />
    <path
       id="rect31389"
       d="m 199,986.3622 v 2 h 2 v -2 c 0,-1.108 0.892,-2 2,-2 1.108,0 2,0.892 2,2 v 2 h 2 v -2 c 0,-2.3808 -1.6025,-4 -4,-4 -2.3975,0 -4,1.68965 -4,4 z"
       style="opacity:1" />
  </g>
</svg>
