<?xml version="1.0" encoding="UTF-8" standalone="no"?>
<svg
   width="12"
   height="15"
   id="svg2"
   version="1.0"
   style="display:inline;enable-background:new"
   xmlns="http://www.w3.org/2000/svg"
   xmlns:svg="http://www.w3.org/2000/svg"
   xmlns:rdf="http://www.w3.org/1999/02/22-rdf-syntax-ns#"
   xmlns:cc="http://creativecommons.org/ns#"
   xmlns:dc="http://purl.org/dc/elements/1.1/">
  <metadata
     id="metadata34337">
    <rdf:RDF>
      <cc:Work
         rdf:about="">
        <dc:format>image/svg+xml</dc:format>
        <dc:type
           rdf:resource="http://purl.org/dc/dcmitype/StillImage" />
        <dc:title />
      </cc:Work>
    </rdf:RDF>
  </metadata>
  <defs
     id="defs4" />
  <g
     id="layer8"
     style="display:inline"
     transform="translate(-112,-431)">
    <path
       id="path21010-5"
       style="color:#000000;font-style:normal;font-variant:normal;font-weight:normal;font-stretch:normal;font-size:medium;line-height:normal;font-family:sans-serif;font-variant-ligatures:normal;font-variant-position:normal;font-variant-caps:normal;font-variant-numeric:normal;font-variant-alternates:normal;font-feature-settings:normal;text-indent:0;text-align:start;text-decoration:none;text-decoration-line:none;text-decoration-style:solid;text-decoration-color:#000000;letter-spacing:normal;word-spacing:normal;text-transform:none;writing-mode:lr-tb;direction:ltr;text-orientation:mixed;dominant-baseline:auto;baseline-shift:baseline;text-anchor:start;white-space:normal;shape-padding:0;clip-rule:nonzero;display:inline;overflow:visible;visibility:visible;opacity:1;isolation:auto;mix-blend-mode:normal;color-interpolation:sRGB;color-interpolation-filters:linearRGB;solid-color:#000000;solid-opacity:1;vector-effect:none;fill:#ffffff;fill-opacity:1;fill-rule:nonzero;stroke:none;stroke-width:1px;stroke-linecap:round;stroke-linejoin:round;stroke-miterlimit:4;stroke-dasharray:none;stroke-dashoffset:0;stroke-opacity:1;marker:none;paint-order:fill markers stroke;color-rendering:auto;image-rendering:auto;shape-rendering:auto;text-rendering:auto;enable-background:accumulate"
       d="m 115.5,442 a 0.50004997,0.50004997 0 1 0 0,1 h 5 a 0.50004997,0.50004997 0 1 0 0,-1 z m 0,2 a 0.50004997,0.50004997 0 1 0 0,1 h 1.5 v 0.5 a 0.50004997,0.50004997 0 0 0 0.5,0.5 h 1 a 0.50004997,0.50004997 0 0 0 0.5,-0.5 V 445 h 1.5 a 0.50004997,0.50004997 0 1 0 0,-1 z m 2.5,-13 c -3.2833,0 -6,2.4414 -6,5.5 0,1.7222 1.0876,3.2946 2.1465,4.3535 0.094,0.094 0.2209,0.1465 0.3535,0.1465 h 7 c 0.1326,0 0.2598,-0.053 0.3535,-0.1465 0.7109,-0.7108 1.4222,-1.6513 1.8262,-2.7148 C 123.8776,437.6179 124,437.066 124,436.5 c 0,-3.0586 -2.7167,-5.5 -6,-5.5 z m -2.5098,5.0059 c 0.1351,0 0.2662,0.047 0.3633,0.1406 L 116.707,437 h 2.586 l 0.8535,-0.8535 c 0.4712,-0.4506 1.1576,0.2358 0.707,0.707 L 120,437.707 v 1.793 0.5 h -1 v -0.5 -1.5 h -2 v 1.5 0.5 h -1 v -0.5 -1.793 l -0.8535,-0.8535 c -0.302,-0.3119 -0.09,-0.8341 0.3437,-0.8476 z" />
  </g>
</svg>
