<?xml version="1.0" encoding="UTF-8" standalone="no"?>
<svg
   width="13.938919"
   height="14"
   id="svg2"
   version="1.0"
   style="display:inline;enable-background:new"
   xmlns="http://www.w3.org/2000/svg"
   xmlns:svg="http://www.w3.org/2000/svg"
   xmlns:rdf="http://www.w3.org/1999/02/22-rdf-syntax-ns#"
   xmlns:cc="http://creativecommons.org/ns#"
   xmlns:dc="http://purl.org/dc/elements/1.1/">
  <metadata
     id="metadata34337">
    <rdf:RDF>
      <cc:Work
         rdf:about="">
        <dc:format>image/svg+xml</dc:format>
        <dc:type
           rdf:resource="http://purl.org/dc/dcmitype/StillImage" />
        <dc:title />
      </cc:Work>
    </rdf:RDF>
  </metadata>
  <defs
     id="defs4" />
  <g
     id="layer8"
     style="display:inline"
     transform="translate(-195.02875,-431)">
    <path
       style="color:#000000;font-style:normal;font-variant:normal;font-weight:normal;font-stretch:normal;font-size:medium;line-height:normal;font-family:sans-serif;font-variant-ligatures:normal;font-variant-position:normal;font-variant-caps:normal;font-variant-numeric:normal;font-variant-alternates:normal;font-feature-settings:normal;text-indent:0;text-align:start;text-decoration:none;text-decoration-line:none;text-decoration-style:solid;text-decoration-color:#000000;letter-spacing:normal;word-spacing:normal;text-transform:none;writing-mode:lr-tb;direction:ltr;text-orientation:mixed;dominant-baseline:auto;baseline-shift:baseline;text-anchor:start;white-space:normal;shape-padding:0;clip-rule:nonzero;display:inline;overflow:visible;visibility:visible;opacity:1;isolation:auto;mix-blend-mode:normal;color-interpolation:sRGB;color-interpolation-filters:linearRGB;solid-color:#000000;solid-opacity:1;vector-effect:none;fill:#ffffff;fill-opacity:1;fill-rule:nonzero;stroke:none;stroke-width:1;stroke-linecap:round;stroke-linejoin:round;stroke-miterlimit:4;stroke-dasharray:none;stroke-dashoffset:0;stroke-opacity:1;marker:none;color-rendering:auto;image-rendering:auto;shape-rendering:auto;text-rendering:auto;enable-background:new"
       d="m 199.50586,431 c -0.31034,2.7e-4 -0.5455,0.28021 -0.49219,0.58594 0.36378,2.06995 0.21088,3.24033 -0.13086,3.98828 -0.34174,0.74794 -0.89741,1.14621 -1.5625,1.65234 -0.66509,0.50614 -1.42742,1.12518 -1.87304,2.24414 -0.44562,1.11896 -0.57595,2.68203 -0.19141,5.10742 0.0385,0.24306 0.24806,0.422 0.49414,0.42188 h 8.75586 c 0.30739,1.4e-4 0.54213,-0.27449 0.49414,-0.57812 -0.36857,-2.32471 -0.21903,-3.70089 0.13086,-4.58204 0.34989,-0.88114 0.89751,-1.32255 1.54492,-1.8164 0.64741,-0.49385 1.4068,-1.03318 1.86328,-2.03516 0.45648,-1.00198 0.58623,-2.39428 0.20313,-4.57422 C 208.70043,431.17484 208.49284,431.0002 208.25,431 Z"
       id="path8644-7" />
  </g>
</svg>
