<?xml version="1.0" encoding="UTF-8" standalone="no"?>
<svg
   width="14.030849"
   height="14.000305"
   id="svg2"
   version="1.0"
   style="display:inline;enable-background:new"
   xmlns="http://www.w3.org/2000/svg"
   xmlns:svg="http://www.w3.org/2000/svg"
   xmlns:rdf="http://www.w3.org/1999/02/22-rdf-syntax-ns#"
   xmlns:cc="http://creativecommons.org/ns#"
   xmlns:dc="http://purl.org/dc/elements/1.1/">
  <metadata
     id="metadata34337">
    <rdf:RDF>
      <cc:Work
         rdf:about="">
        <dc:format>image/svg+xml</dc:format>
        <dc:type
           rdf:resource="http://purl.org/dc/dcmitype/StillImage" />
        <dc:title />
      </cc:Work>
    </rdf:RDF>
  </metadata>
  <defs
     id="defs4" />
  <g
     id="layer8"
     style="display:inline"
     transform="translate(-47.978638,-430.99985)">
    <path
       style="color:#000000;font-style:normal;font-variant:normal;font-weight:normal;font-stretch:normal;font-size:medium;line-height:normal;font-family:sans-serif;font-variant-ligatures:normal;font-variant-position:normal;font-variant-caps:normal;font-variant-numeric:normal;font-variant-alternates:normal;font-feature-settings:normal;text-indent:0;text-align:start;text-decoration:none;text-decoration-line:none;text-decoration-style:solid;text-decoration-color:#000000;letter-spacing:normal;word-spacing:normal;text-transform:none;writing-mode:lr-tb;direction:ltr;text-orientation:mixed;dominant-baseline:auto;baseline-shift:baseline;text-anchor:start;white-space:normal;shape-padding:0;clip-rule:nonzero;display:inline;overflow:visible;visibility:visible;opacity:1;isolation:auto;mix-blend-mode:normal;color-interpolation:sRGB;color-interpolation-filters:linearRGB;solid-color:#000000;solid-opacity:1;vector-effect:none;fill:#ffffff;fill-opacity:1;fill-rule:nonzero;stroke:none;stroke-width:3;stroke-linecap:round;stroke-linejoin:miter;stroke-miterlimit:4;stroke-dasharray:none;stroke-dashoffset:0;stroke-opacity:1;color-rendering:auto;image-rendering:auto;shape-rendering:auto;text-rendering:auto;enable-background:new"
       d="m 53.5,431 a 1.50015,1.50015 0 1 0 0,3 H 55 c 1.249468,0.006 2.332699,0.37671 3.013672,0.94141 0.682107,0.56564 1.059323,1.26298 0.988281,2.4707 -0.09036,1.53611 -0.972327,2.5432 -2.498047,3.35351 -1.525719,0.81032 -3.632465,1.22991 -5.447265,1.23438 H 49.5 a 1.50015,1.50015 0 1 0 0,3 h 1.5625 0.002 c 2.24072,-0.006 4.728077,-0.46126 6.845703,-1.58594 2.117627,-1.12468 3.928252,-3.11228 4.087891,-5.82617 0.120132,-2.04228 -0.719411,-3.83841 -2.068359,-4.95703 -1.348949,-1.11862 -3.108979,-1.6232 -4.923829,-1.63086 h -0.002 z"
       id="path8588-0" />
  </g>
</svg>
