<?xml version="1.0" encoding="UTF-8" standalone="no"?>
<svg
   width="13.009766"
   height="14.009766"
   id="svg2"
   version="1.0"
   style="display:inline;enable-background:new"
   xmlns="http://www.w3.org/2000/svg"
   xmlns:svg="http://www.w3.org/2000/svg"
   xmlns:rdf="http://www.w3.org/1999/02/22-rdf-syntax-ns#"
   xmlns:cc="http://creativecommons.org/ns#"
   xmlns:dc="http://purl.org/dc/elements/1.1/">
  <metadata
     id="metadata34337">
    <rdf:RDF>
      <cc:Work
         rdf:about="">
        <dc:format>image/svg+xml</dc:format>
        <dc:type
           rdf:resource="http://purl.org/dc/dcmitype/StillImage" />
        <dc:title />
      </cc:Work>
    </rdf:RDF>
  </metadata>
  <defs
     id="defs4" />
  <g
     id="layer8"
     style="display:inline"
     transform="translate(-174.99023,-430.99023)">
    <path
       style="color:#000000;font-style:normal;font-variant:normal;font-weight:normal;font-stretch:normal;font-size:medium;line-height:normal;font-family:sans-serif;font-variant-ligatures:normal;font-variant-position:normal;font-variant-caps:normal;font-variant-numeric:normal;font-variant-alternates:normal;font-feature-settings:normal;text-indent:0;text-align:start;text-decoration:none;text-decoration-line:none;text-decoration-style:solid;text-decoration-color:#000000;letter-spacing:normal;word-spacing:normal;text-transform:none;writing-mode:lr-tb;direction:ltr;text-orientation:mixed;dominant-baseline:auto;baseline-shift:baseline;text-anchor:start;white-space:normal;shape-padding:0;clip-rule:nonzero;display:inline;overflow:visible;visibility:visible;opacity:1;isolation:auto;mix-blend-mode:normal;color-interpolation:sRGB;color-interpolation-filters:linearRGB;solid-color:#000000;solid-opacity:1;vector-effect:none;fill:#ffffff;fill-opacity:1;fill-rule:nonzero;stroke:none;stroke-width:1px;stroke-linecap:round;stroke-linejoin:round;stroke-miterlimit:4;stroke-dasharray:none;stroke-dashoffset:0;stroke-opacity:1;color-rendering:auto;image-rendering:auto;shape-rendering:auto;text-rendering:auto;enable-background:new"
       d="m 180.25977,430.99023 c -1.56005,0 -2.83737,0.68503 -4,1.32227 -0.15986,0.0876 -0.25939,0.25522 -0.25977,0.4375 v 1.75 c -0.002,0.58015 0.81953,0.69801 0.98047,0.14062 0.5477,-1.86218 2.26129,-2.69946 3.87109,-2.56445 0.056,0.003 0.0879,0.0161 0.14258,0.0195 C 182.58833,432.2915 184,433.38188 184,435.75 V 437 h -4.17383 c -1.71873,0 -2.95078,0.48602 -3.73828,1.26172 -0.7875,0.77569 -1.09766,1.80326 -1.09766,2.77539 0,1.37482 0.63393,2.43409 1.58008,3.07031 C 177.51646,444.74365 178.73744,445 180,445 c 1.61266,0 3.42658,-0.64151 4.45508,-1.56836 0.43191,0.42904 0.80166,0.78819 1.11328,1.03906 0.38759,0.31203 0.75096,0.5293 1.18164,0.5293 h 0.75 c 0.31531,0 0.5,-0.25 0.5,-0.5 0,-0.25 -0.16406,-0.5 -0.5,-0.5 -0.0833,0 -0.22505,-0.0571 -0.33398,-0.16602 C 187.05708,443.72508 187,443.58333 187,443.5 v -7 c 0,-1.04167 -0.0843,-2.5 -1.08398,-3.57617 -1.37045,-1.47528 -2.91602,-1.9336 -5.65625,-1.9336 z M 181.5,438 h 2.5 v 4.49023 c -0.8549,0.62028 -1.60427,0.95721 -2.2793,1.14844 -0.1561,0.0477 -0.30873,0.061 -0.46679,0.0977 -0.63626,0.10402 -1.2211,0.10508 -1.65821,-0.0742 C 178.58677,443.24823 178,442.20833 178,441 c 0,-0.63889 0.21654,-1.3962 0.74414,-1.97656 C 179.27174,438.44308 180.11111,438 181.5,438 Z"
       id="path7432" />
  </g>
</svg>
