<?xml version="1.0" encoding="UTF-8" standalone="no"?>
<svg
   width="24.71228"
   height="24.84293"
   id="svg2"
   version="1.0"
   style="display:inline;enable-background:new"
   xmlns="http://www.w3.org/2000/svg"
   xmlns:svg="http://www.w3.org/2000/svg"
   xmlns:rdf="http://www.w3.org/1999/02/22-rdf-syntax-ns#"
   xmlns:cc="http://creativecommons.org/ns#"
   xmlns:dc="http://purl.org/dc/elements/1.1/">
  <metadata
     id="metadata34337">
    <rdf:RDF>
      <cc:Work
         rdf:about="">
        <dc:format>image/svg+xml</dc:format>
        <dc:type
           rdf:resource="http://purl.org/dc/dcmitype/StillImage" />
      </cc:Work>
    </rdf:RDF>
  </metadata>
  <defs
     id="defs4" />
  <g
     id="layer8"
     style="display:inline"
     transform="translate(-289.28772,-231.15707)">
    <g
       style="display:inline;fill:#ffffff;enable-background:new"
       id="g22891"
       transform="translate(443.99999,-274)">
      <path
         style="color:#000000;font-style:normal;font-variant:normal;font-weight:normal;font-stretch:normal;font-size:medium;line-height:normal;font-family:sans-serif;font-variant-ligatures:normal;font-variant-position:normal;font-variant-caps:normal;font-variant-numeric:normal;font-variant-alternates:normal;font-feature-settings:normal;text-indent:0;text-align:start;text-decoration:none;text-decoration-line:none;text-decoration-style:solid;text-decoration-color:#000000;letter-spacing:normal;word-spacing:normal;text-transform:none;writing-mode:lr-tb;direction:ltr;text-orientation:mixed;dominant-baseline:auto;baseline-shift:baseline;text-anchor:start;white-space:normal;shape-padding:0;clip-rule:nonzero;display:inline;overflow:visible;visibility:visible;opacity:0.6;isolation:auto;mix-blend-mode:normal;color-interpolation:sRGB;color-interpolation-filters:linearRGB;solid-color:#000000;solid-opacity:1;vector-effect:none;fill:#ffffff;fill-opacity:1;fill-rule:evenodd;stroke:none;stroke-width:1px;stroke-linecap:square;stroke-linejoin:round;stroke-miterlimit:4;stroke-dasharray:none;stroke-dashoffset:0;stroke-opacity:1;color-rendering:auto;image-rendering:auto;shape-rendering:auto;text-rendering:auto;enable-background:accumulate"
         d="m -141,519.5 v 1.5 h 1 v -1.5 z m 0,2.5 v 2 h 1 v -2 z m 0,3 v 1.2793 l -2.58594,2.35156 0.67188,0.73828 2.60351,-2.36719 L -139,527 v -1 h -1 v -1 z m 3.00781,1 v 1 h 2 v -1 z M -135,526 v 1 h 1.5 v -1 z"
         mask="none"
         id="path12456" />
      <path
         style="color:#000000;font-style:normal;font-variant:normal;font-weight:normal;font-stretch:normal;font-size:medium;line-height:normal;font-family:sans-serif;font-variant-ligatures:normal;font-variant-position:normal;font-variant-caps:normal;font-variant-numeric:normal;font-variant-alternates:normal;font-feature-settings:normal;text-indent:0;text-align:start;text-decoration:none;text-decoration-line:none;text-decoration-style:solid;text-decoration-color:#000000;letter-spacing:normal;word-spacing:normal;text-transform:none;writing-mode:lr-tb;direction:ltr;text-orientation:mixed;dominant-baseline:auto;baseline-shift:baseline;text-anchor:start;white-space:normal;shape-padding:0;clip-rule:nonzero;display:inline;overflow:visible;visibility:visible;opacity:1;isolation:auto;mix-blend-mode:normal;color-interpolation:sRGB;color-interpolation-filters:linearRGB;solid-color:#000000;solid-opacity:1;vector-effect:none;fill:#ffffff;fill-opacity:1;fill-rule:evenodd;stroke:none;stroke-width:1;stroke-linecap:round;stroke-linejoin:round;stroke-miterlimit:4;stroke-dasharray:none;stroke-dashoffset:0;stroke-opacity:1;color-rendering:auto;image-rendering:auto;shape-rendering:auto;text-rendering:auto;enable-background:accumulate"
         d="m 303.5,242 c -0.1326,2e-5 -0.25976,0.0527 -0.35352,0.14648 l -3,3 c -0.0938,0.0938 -0.14646,0.22092 -0.14648,0.35352 v 10 c 3e-5,0.27613 0.22387,0.49997 0.5,0.5 h 10 c 0.1326,-2e-5 0.25976,-0.0527 0.35352,-0.14648 l 3,-3 c 0.0938,-0.0938 0.14646,-0.22092 0.14648,-0.35352 v -10 c -3e-5,-0.27613 -0.22387,-0.49997 -0.5,-0.5 z m 1.20859,1 h 6.71346 l -2,2 h -6.71346 z M 313,245.01341 v 6.23446 l -2,2 v -6.23446 z m -10.99844,2.59779 h 7.12752 v 6.16952 h -7.12752 z"
         transform="translate(-443.99999,274)"
         id="path12458" />
    </g>
    <g
       style="display:inline;fill:#ffffff;enable-background:new"
       id="g20112"
       transform="translate(433.28771,-284.84293)">
      <path
         style="color:#000000;font-style:normal;font-variant:normal;font-weight:normal;font-stretch:normal;font-size:medium;line-height:normal;font-family:sans-serif;font-variant-ligatures:normal;font-variant-position:normal;font-variant-caps:normal;font-variant-numeric:normal;font-variant-alternates:normal;font-feature-settings:normal;text-indent:0;text-align:start;text-decoration:none;text-decoration-line:none;text-decoration-style:solid;text-decoration-color:#000000;letter-spacing:normal;word-spacing:normal;text-transform:none;writing-mode:lr-tb;direction:ltr;text-orientation:mixed;dominant-baseline:auto;baseline-shift:baseline;text-anchor:start;white-space:normal;shape-padding:0;clip-rule:nonzero;display:inline;overflow:visible;visibility:visible;opacity:0.6;isolation:auto;mix-blend-mode:normal;color-interpolation:sRGB;color-interpolation-filters:linearRGB;solid-color:#000000;solid-opacity:1;vector-effect:none;fill:#ffffff;fill-opacity:1;fill-rule:evenodd;stroke:none;stroke-width:1px;stroke-linecap:square;stroke-linejoin:round;stroke-miterlimit:4;stroke-dasharray:none;stroke-dashoffset:0;stroke-opacity:1;color-rendering:auto;image-rendering:auto;shape-rendering:auto;text-rendering:auto;enable-background:accumulate"
         d="m -141,519.5 v 1.5 h 1 v -1.5 z m 0,2.5 v 2 h 1 v -2 z m 0,3 v 1.2793 l -2.58594,2.35156 0.67188,0.73828 2.60351,-2.36719 L -139,527 v -1 h -1 v -1 z m 3.00781,1 v 1 h 2 v -1 z M -135,526 v 1 h 1.5 v -1 z"
         mask="none"
         id="path20108" />
      <path
         style="color:#000000;font-style:normal;font-variant:normal;font-weight:normal;font-stretch:normal;font-size:medium;line-height:normal;font-family:sans-serif;font-variant-ligatures:normal;font-variant-position:normal;font-variant-caps:normal;font-variant-numeric:normal;font-variant-alternates:normal;font-feature-settings:normal;text-indent:0;text-align:start;text-decoration:none;text-decoration-line:none;text-decoration-style:solid;text-decoration-color:#000000;letter-spacing:normal;word-spacing:normal;text-transform:none;writing-mode:lr-tb;direction:ltr;text-orientation:mixed;dominant-baseline:auto;baseline-shift:baseline;text-anchor:start;white-space:normal;shape-padding:0;clip-rule:nonzero;display:inline;overflow:visible;visibility:visible;opacity:1;isolation:auto;mix-blend-mode:normal;color-interpolation:sRGB;color-interpolation-filters:linearRGB;solid-color:#000000;solid-opacity:1;vector-effect:none;fill:#ffffff;fill-opacity:1;fill-rule:evenodd;stroke:none;stroke-width:1;stroke-linecap:round;stroke-linejoin:round;stroke-miterlimit:4;stroke-dasharray:none;stroke-dashoffset:0;stroke-opacity:1;color-rendering:auto;image-rendering:auto;shape-rendering:auto;text-rendering:auto;enable-background:accumulate"
         d="m 303.5,242 c -0.1326,2e-5 -0.25976,0.0527 -0.35352,0.14648 l -3,3 c -0.0938,0.0938 -0.14646,0.22092 -0.14648,0.35352 v 10 c 3e-5,0.27613 0.22387,0.49997 0.5,0.5 h 10 c 0.1326,-2e-5 0.25976,-0.0527 0.35352,-0.14648 l 3,-3 c 0.0938,-0.0938 0.14646,-0.22092 0.14648,-0.35352 v -10 c -3e-5,-0.27613 -0.22387,-0.49997 -0.5,-0.5 z m 1.0344,1 h 6.71347 l -2,2 H 302.5344 Z M 313,245.01341 v 6.43042 l -2,2 v -6.43042 z m -11.12908,2.3334 c 3.02414,-0.0121 4.27745,-0.0423 7.19284,0 v 6.80405 h -7.19284 z"
         transform="translate(-443.99999,274)"
         id="path20110" />
    </g>
  </g>
</svg>
