<?xml version="1.0" encoding="UTF-8" standalone="no"?>
<svg
   viewBox="0 0 16 16"
   height="16"
   width="16"
   id="svg1"
   version="1.1"
   xmlns="http://www.w3.org/2000/svg"
   xmlns:svg="http://www.w3.org/2000/svg"
   xmlns:rdf="http://www.w3.org/1999/02/22-rdf-syntax-ns#"
   xmlns:cc="http://creativecommons.org/ns#"
   xmlns:dc="http://purl.org/dc/elements/1.1/">
  <metadata
     id="metadata1568">
    <rdf:RDF>
      <cc:Work
         rdf:about="">
        <dc:format>image/svg+xml</dc:format>
        <dc:type
           rdf:resource="http://purl.org/dc/dcmitype/StillImage" />
      </cc:Work>
    </rdf:RDF>
  </metadata>
  <defs
     id="defs1566" />
  <style
     id="s0">
.success { fill:#009909; }
.warning { fill:#FF1990; }
.error { fill:#00AAFF; }
</style>
  <style
     id="s2">
@import '../../highlights.css';
</style>
  <g
     id="xml-attribute-delete"
     transform="matrix(0.666667,0,0,0.666667,-797.33333,-371.57479)">
    <path
       style="opacity:0;fill:none"
       d="m 1196,557.36218 h 24 v 24 h -24 z"
       id="rect21940" />
    <path
       style="opacity:1"
       d="m 1196,557.36218 h 1 v 24 h -1 z"
       id="rect21942" />
    <path
       style="opacity:1"
       d="m 1196,557.36218 h 24 v 1 h -24 z"
       id="rect21944" />
    <path
       style="opacity:1"
       d="m 1196,580.36218 h 24 v 1 h -24 z"
       id="rect21946" />
    <path
       style="opacity:1"
       d="m 1219,557.36218 h 1 v 24 h -1 z"
       id="rect21948" />
    <path
       id="rect21982"
       d="m 1199,562.3622 v 3 h 3 v -3 z m 1,1 h 1 v 1 h -1 z"
       style="opacity:1" />
    <path
       style="opacity:1"
       d="m 1200,565.36218 h 1 v 8.00001 h -1 z"
       id="rect21986" />
    <path
       style="opacity:1"
       d="m 1201,568.36218 h 6 v 1 h -6 z"
       id="rect21988" />
    <path
       style="opacity:1"
       d="m 1200,573.36218 h 7 v 1 h -7 z"
       id="rect21990" />
    <path
       id="rect21992"
       d="m 1207,566.3622 v 4 h 10 v -4 z m 1,1 h 8 v 2 h -8 z"
       style="opacity:1" />
    <path
       id="rect21994"
       d="m 1207,571.3622 v 4 h 10 v -4 z m 1,1 h 8 v 2 h -8 z"
       style="opacity:1" />
  </g>
</svg>
